Coordinates
version=1
nRows=54
nColumns=12
inDegrees=yes

Units are S.I. units (second, meters, Newtons, ...)
Angles are in degrees

endheader
time	SC_y	SC_z	SC_x	AC_y	AC_z	AC_x	GH_y	GH_z	GH_yy	EL_x	PS_y
       0.0              -43.77          13.72          53.23          50.96         -16.12           12.7          112.8          19.98         0.4359           60.3          141.6
  0.004618              -43.77          13.72          53.23          50.96         -16.12           12.7          112.8          19.97         0.4471          60.29          141.6
  0.009235              -43.77          13.72          53.22          50.96         -16.12           12.7          112.8          19.97         0.4589          60.28          141.6
   0.01385              -43.77          13.73          53.22          50.96         -16.12          12.69          112.7          19.97         0.4716          60.27          141.6
   0.01847              -43.77          13.73          53.21          50.96         -16.12          12.69          112.7          19.97          0.485          60.27          141.6
   0.02309              -43.77          13.73          53.21          50.96         -16.12          12.69          112.7          19.97         0.4993          60.26          141.6
   0.02771              -43.77          13.73          53.21          50.96         -16.11          12.68          112.6          19.96         0.5146          60.25          141.6
   0.03232              -43.77          13.73           53.2          50.96         -16.11          12.68          112.6          19.96         0.5309          60.23          141.6
   0.03694              -43.77          13.74           53.2          50.96         -16.11          12.67          112.6          19.96         0.5484          60.22          141.6
   0.04156              -43.77          13.74          53.19          50.96         -16.11          12.67          112.5          19.96         0.5672          60.21          141.6
   0.04618              -43.77          13.74          53.19          50.96         -16.11          12.66          112.5          19.95         0.5874           60.2          141.6
   0.05079              -43.78          13.75          53.18          50.96         -16.11          12.65          112.4          19.95         0.6091          60.18          141.6
   0.05541              -43.78          13.75          53.17          50.96          -16.1          12.65          112.4          19.95         0.6325          60.17          141.6
   0.06003              -43.78          13.75          53.17          50.97          -16.1          12.64          112.3          19.94         0.6577          60.15          141.6
   0.06465              -43.78          13.76          53.16          50.97          -16.1          12.63          112.3          19.94         0.6851          60.13          141.6
   0.06926              -43.78          13.76          53.15          50.97          -16.1          12.62          112.2          19.94         0.7147          60.11          141.6
   0.07388              -43.78          13.77          53.14          50.97         -16.09          12.61          112.1          19.93          0.747          60.09          141.6
    0.0785              -43.78          13.77          53.13          50.97         -16.09           12.6          112.1          19.93         0.7821          60.06          141.7
   0.08312              -43.78          13.78          53.12          50.97         -16.09          12.59          112.0          19.92         0.8204          60.04          141.7
   0.08774              -43.79          13.78          53.11          50.97         -16.08          12.58          111.9          19.92         0.8624          60.01          141.7
   0.09235              -43.79          13.79           53.1          50.97         -16.08          12.57          111.8          19.91         0.9085          59.98          141.7
   0.09697              -43.79           13.8          53.08          50.98         -16.07          12.55          111.7           19.9         0.9592          59.94          141.7
    0.1016              -43.79          13.81          53.07          50.98         -16.07          12.53          111.5           19.9          1.015          59.91          141.7
    0.1062               -43.8          13.82          53.05          50.98         -16.06          12.52          111.4          19.89          1.077          59.86          141.7
    0.1108               -43.8          13.83          53.03          50.98         -16.06           12.5          111.3          19.88          1.146          59.82          141.7
    0.1154               -43.8          13.84          53.01          50.98         -16.05          12.47          111.1          19.87          1.223          59.77          141.7
    0.1201               -43.8          13.85          52.99          50.99         -16.04          12.45          110.9          19.86           1.31          59.71          141.8
    0.1247              -43.81          13.87          52.96          50.99         -16.03          12.42          110.7          19.84          1.407          59.64          141.8
    0.1293              -43.81          13.88          52.93          50.99         -16.02          12.39          110.5          19.83          1.516          59.57          141.8
    0.1339              -43.82           13.9          52.89           51.0         -16.01          12.35          110.2          19.81          1.641          59.48          141.8
    0.1385              -43.82          13.92          52.85           51.0          -16.0          12.31          109.9          19.79          1.783          59.39          141.9
    0.1431              -43.83          13.95          52.81          51.01         -15.98          12.26          109.5          19.77          1.946          59.27          141.9
    0.1478              -43.84          13.98          52.76          51.01         -15.97          12.21          109.1          19.74          2.134          59.15          141.9
    0.1524              -43.85          14.01           52.7          51.02         -15.95          12.14          108.6          19.71          2.353           59.0          142.0
     0.157              -43.86          14.05          52.63          51.03         -15.92          12.07          108.1          19.68          2.609          58.83          142.0
    0.1616              -43.87          14.09          52.54          51.04          -15.9          11.98          107.4          19.64          2.911          58.62          142.1
    0.1662              -43.88          14.15          52.44          51.05         -15.86          11.87          106.6          19.59           3.27          58.38          142.2
    0.1709               -43.9          14.21          52.32          51.06         -15.83          11.75          105.7          19.53            3.7          58.09          142.2
    0.1755              -43.92          14.29          52.18          51.08         -15.78           11.6          104.6          19.46           4.22          57.73          142.3
    0.1801              -43.95          14.38           52.0           51.1         -15.72          11.41          103.2          19.37          4.855           57.3          142.5
    0.1847              -43.98           14.5          51.79          51.12         -15.65          11.18          101.5          19.27          5.639          56.77          142.6
    0.1893              -44.02          14.65          51.51          51.15         -15.56           10.9          99.35          19.13          6.617          56.11          142.8
    0.1939              -44.07          14.83          51.17          51.19         -15.45          10.54          96.67          18.97          7.849          55.27          143.1
    0.1986              -44.14          15.07          50.74          51.24         -15.31          10.08          93.26          18.75          9.415          54.21          143.4
    0.2032              -44.22          15.37          50.18           51.3         -15.12          9.491          88.89          18.48          11.42          52.85          143.8
    0.2078              -44.32          15.76          49.47          51.38         -14.89          8.739          83.29          18.13          13.99          51.11          144.3
    0.2124              -44.46          16.25          48.56          51.49         -14.59          7.778          76.14          17.68          17.28          48.88          145.0
     0.217              -44.63          16.87          47.41          51.62         -14.22           6.57          67.14          17.12          21.41          46.08          145.8
    0.2216              -44.84          17.63          46.01          51.77         -13.76          5.098          56.18          16.43          26.44          42.66          146.8
    0.2263              -45.08           18.5           44.4          51.96         -13.23          3.391          43.47          15.64          32.28          38.71          148.0
    0.2309              -45.33          19.45          42.64          52.15         -12.66          1.543          29.72          14.78          38.59          34.42          149.3
    0.2355              -45.59           20.4          40.89          52.35         -12.09        -0.3049          15.96          13.92          44.91          30.14          150.6
    0.2401              -45.83          21.28          39.27          52.53         -11.56         -2.012          3.252          13.12          50.75          26.18          151.7
    0.2447              -46.04          22.03          37.88          52.69          -11.1         -3.484         -7.709          12.43          55.78          22.77          152.8
